<svg width="0" height="0" style="position:absolute"><symbol viewBox="0 0 31.9 18" id="svg-arrow-down" xmlns="http://www.w3.org/2000/svg"><path d="M29.2.4l2.7 2.5L16 17.6l-2.6-2.5L0 2.9 2.7.4 16 12.7 29.2.4z"/></symbol><symbol id="svg-core" viewBox="0 0 56 56" style="enable-background:new 0 0 56 56;" xml:space="preserve" xmlns="http://www.w3.org/2000/svg">
<style type="text/css">.spritebst0{fill:none}</style>
<g>
	<rect id="spritebpath-1" class="spritebst0" width="56" height="56"/>
	<g>
		<path d="M47.5,26.5c0.8,0,1.5-0.7,1.5-1.5s-0.7-1.5-1.5-1.5h-5v-3h5c0.8,0,1.5-0.7,1.5-1.5s-0.7-1.5-1.5-1.5h-5V16
			c0-1.4-1.1-2.5-2.5-2.5h-1.5v-5C38.5,7.7,37.8,7,37,7s-1.5,0.7-1.5,1.5v5h-3v-5C32.5,7.7,31.8,7,31,7s-1.5,0.7-1.5,1.5v5h-3v-5
			C26.5,7.7,25.8,7,25,7s-1.5,0.7-1.5,1.5v5h-3v-5C20.5,7.7,19.8,7,19,7s-1.5,0.7-1.5,1.5v5H16c-1.4,0-2.5,1.1-2.5,2.5v1.5h-5
			C7.7,17.5,7,18.2,7,19s0.7,1.5,1.5,1.5h5v3h-5C7.7,23.5,7,24.2,7,25s0.7,1.5,1.5,1.5h5v3h-5C7.7,29.5,7,30.2,7,31s0.7,1.5,1.5,1.5
			h5v3h-5C7.7,35.5,7,36.2,7,37s0.7,1.5,1.5,1.5h5V40c0,1.4,1.1,2.5,2.5,2.5h1.5v5c0,0.8,0.7,1.5,1.5,1.5s1.5-0.7,1.5-1.5v-5h3v5
			c0,0.8,0.7,1.5,1.5,1.5s1.5-0.7,1.5-1.5v-5h3v5c0,0.8,0.7,1.5,1.5,1.5s1.5-0.7,1.5-1.5v-5h3v5c0,0.8,0.7,1.5,1.5,1.5
			s1.5-0.7,1.5-1.5v-5H40c1.4,0,2.5-1.1,2.5-2.5v-1.5h5c0.8,0,1.5-0.7,1.5-1.5s-0.7-1.5-1.5-1.5h-5v-3h5c0.8,0,1.5-0.7,1.5-1.5
			s-0.7-1.5-1.5-1.5h-5v-3H47.5z M39.5,39.5h-23v-23h23V39.5z"/>
		<path d="M22,36.5h12c1.4,0,2.5-1.1,2.5-2.5V22c0-1.4-1.1-2.5-2.5-2.5H22c-1.4,0-2.5,1.1-2.5,2.5v12C19.5,35.4,20.6,36.5,22,36.5z
			 M22.5,22.5h11v11h-11V22.5z"/>
	</g>
</g>
</symbol><symbol id="svg-cpanel" viewBox="0 0 56 56" style="enable-background:new 0 0 56 56;" xml:space="preserve" xmlns="http://www.w3.org/2000/svg">
<style type="text/css">.spritecst0{fill:none}</style>
<g>
	<rect id="spritecpath-1" class="spritecst0" width="56" height="56"/>
	<g>
		<path d="M51.7,20.9c-0.4-1.9-1.1-3.5-2.1-5.1c-1.1-1.4-2.4-2.7-4-3.5c-1.7-0.9-3.3-1.3-5.2-1.3h-8.3c-0.7,0-1.4,0.2-2,0.7
			c-0.6,0.5-0.9,1.2-1.2,1.9L21.1,45h5.6c0.7,0,1.4-0.2,2-0.7c0.6-0.5,0.9-1.1,1.2-1.9l5.8-23.2h4.5c0.7,0,1.3,0.1,1.9,0.5
			c0.6,0.4,1.1,0.7,1.4,1.3c0.4,0.5,0.6,1.2,0.8,1.8c0.1,0.7,0.1,1.4-0.1,2.1c-0.2,0.9-0.7,1.8-1.5,2.5c-0.7,0.6-1.7,0.9-2.6,0.9
			h-2.2c-0.7,0-1.4,0.2-2,0.7s-0.9,1.1-1.2,1.9l-1.4,5.8h7.2c1.3,0,2.6-0.2,3.8-0.7s2.4-1.1,3.3-1.9c0.9-0.8,1.9-1.9,2.6-2.9
			c0.7-1.2,1.2-2.5,1.5-3.8l0.1-0.6C52.1,24.8,52.1,22.8,51.7,20.9z"/>
		<path d="M13.5,28.7c0.7-0.6,1.5-0.9,2.5-0.9H20c0.7,0,1.4-0.2,2-0.7c0.6-0.5,0.9-1,1.2-1.9l1.4-5.7h-8.9c-1.3,0-2.6,0.2-3.7,0.8
			c-1.2,0.5-2.3,1-3.3,1.9c-1.1,0.8-1.9,1.7-2.6,2.9c-0.8,1.2-1.3,2.3-1.6,3.7l-0.1,0.7c-0.5,2-0.5,3.9-0.1,5.8
			c0.4,1.9,1.1,3.5,2.1,5c1.1,1.4,2.3,2.5,4,3.5c1.5,0.8,3.3,1.3,5.1,1.3h2.8l1.5-6.3c0.1-0.5,0.1-1-0.2-1.4
			c-0.4-0.3-0.7-0.6-1.2-0.6h-2.5c-0.7,0-1.3-0.1-1.9-0.5C13.5,36,13,35.5,12.7,35c-0.5-0.5-0.7-1-0.8-1.7c-0.1-0.7-0.1-1.4,0.1-2.2
			C12.3,30,12.8,29.2,13.5,28.7z"/>
	</g>
</g>
</symbol><symbol id="svg-data" viewBox="0 0 56 56" style="enable-background:new 0 0 56 56;" xml:space="preserve" xmlns="http://www.w3.org/2000/svg">
<style type="text/css">.spritedst0{fill:none}</style>
<g>
	<rect id="spritedpath-1" class="spritedst0" width="56" height="56"/>
	<g>
		<circle cx="16.5" cy="15.5" r="2.5"/>
		<circle cx="16.5" cy="28.5" r="2.5"/>
		<circle cx="16.5" cy="41.5" r="2.5"/>
		<path d="M45,7.5H11c-2.5,0-4.5,2-4.5,4.5v33c0,2.5,2,4.5,4.5,4.5h34c2.5,0,4.5-2,4.5-4.5V12C49.5,9.5,47.5,7.5,45,7.5z M46.5,45
			c0,0.8-0.7,1.5-1.5,1.5H11c-0.8,0-1.5-0.7-1.5-1.5v-8h37V45z M46.5,34h-37V24h37V34z M46.5,21h-37v-9c0-0.8,0.7-1.5,1.5-1.5h34
			c0.8,0,1.5,0.7,1.5,1.5V21z"/>
	</g>
</g>
</symbol><symbol id="svg-data_transfer" viewBox="0 0 56 56" style="enable-background:new 0 0 56 56;" xml:space="preserve" xmlns="http://www.w3.org/2000/svg">
<style type="text/css">.spriteest0{fill:none}</style>
<g>
	<rect id="spriteepath-1" class="spriteest0" width="56" height="56"/>
	<g>
		<path d="M8.5,31.4c0.8,0,1.5-0.7,1.5-1.5c0-8.9,7.2-16.1,16.1-16.1h16.3v3.5c0,0.3,0.1,0.5,0.3,0.7c0.4,0.4,1,0.4,1.4,0l4.4-4.4
			c0.4-0.4,0.4-1,0-1.4l-4.4-4.4c-0.2-0.2-0.4-0.3-0.7-0.3c-0.6,0-1,0.4-1,1v2.3H26.1C15.5,10.8,7,19.3,7,29.9
			C7,30.7,7.7,31.4,8.5,31.4z"/>
		<path d="M47.9,25.8c-0.8,0-1.5,0.7-1.5,1.5c0,8.8-7.1,15.9-15.9,15.9H12.9v-3.5c0-0.3-0.1-0.5-0.3-0.7c-0.4-0.4-1-0.4-1.4,0
			l-4.4,4.4c-0.4,0.4-0.4,1,0,1.4l4.4,4.4c0.2,0.2,0.4,0.3,0.7,0.3c0.6,0,1-0.4,1-1v-2.3h17.6c10.5,0,18.9-8.5,18.9-18.9
			C49.4,26.5,48.8,25.8,47.9,25.8z"/>
	</g>
</g>
</symbol></svg>