<svg width="72" height="72" viewBox="0 0 72 72" fill="none" xmlns="http://www.w3.org/2000/svg">
<path d="M24.6319 37.2632L18.9475 32.8421M18.9475 32.8421C18.9475 32.8421 13.0476 27.3984 10.737 23.3684M18.9475 32.8421C15.3686 33.6842 7.45278 34.3579 4.4212 30.3158M11.3688 13.2632C16.4215 9.47371 16.4214 1.26318 16.4214 1.26318M11.3688 13.2632C10.1054 14.5263 10.1048 20.8421 10.737 23.3684M11.3688 13.2632C10.1055 13.4737 7.45278 12.7579 6.94752 8.21055M10.737 23.3684C8.84226 23.579 4.29488 22.9895 1.26331 18.9474" stroke="#1A1A1A" stroke-width="2.52632" stroke-linecap="round"/>
<path d="M45.4735 36.6316L51.6188 32.2881M51.6188 32.2881C51.6188 32.2881 57.9971 26.9399 60.4949 22.9806M51.6188 32.2881C55.4879 33.1154 64.0454 33.7773 67.3228 29.8061M59.812 13.0527C54.3496 9.32967 54.3497 1.26318 54.3497 1.26318M59.812 13.0527C61.1777 14.2937 61.1784 20.4986 60.4949 22.9806M59.812 13.0527C61.1776 13.2595 64.0454 12.5563 64.5917 8.08867M60.4949 22.9806C62.5433 23.1875 67.4593 22.6083 70.7367 18.6371" stroke="#1A1A1A" stroke-width="2.52632" stroke-linecap="round"/>
<path d="M51.7897 45.4739C51.7897 39.8929 44.155 35.3687 34.7371 35.3687C25.3192 35.3687 17.6844 39.8929 17.6844 45.4739" stroke="#1A1A1A" stroke-width="2.52632" stroke-linecap="round"/>
<path d="M30.3159 49.2631C30.3159 47.8679 28.6193 46.7368 26.5264 46.7368C24.4335 46.7368 22.7369 47.8679 22.7369 49.2631" stroke="#1A1A1A" stroke-width="2.52632" stroke-linecap="round"/>
<path d="M48 49.2631C48 47.8679 46.3034 46.7368 44.2105 46.7368C42.1176 46.7368 40.421 47.8679 40.421 49.2631" stroke="#1A1A1A" stroke-width="2.52632" stroke-linecap="round"/>
<path d="M25.2633 66.9473C25.2633 69.0402 27.5254 70.7368 30.3159 70.7368C33.1064 70.7368 35.3685 69.0402 35.3685 66.9473L35.3685 63.1579" stroke="#1A1A1A" stroke-width="2.52632" stroke-linecap="round"/>
<path d="M45.4738 66.9473C45.4738 69.0402 43.2117 70.7368 40.4212 70.7368C37.6307 70.7368 35.3685 69.0402 35.3685 66.9473L35.3685 63.1579" stroke="#1A1A1A" stroke-width="2.52632" stroke-linecap="round"/>
<ellipse cx="35.3685" cy="60.0002" rx="3.78947" ry="3.15789" stroke="#1A1A1A" stroke-width="2.52632" stroke-linecap="round"/>
</svg>
